<svg width="128" height="17" viewBox="0 0 128 17" fill="none" xmlns="http://www.w3.org/2000/svg">
<path d="M127.5 12.5C123.973 12.5 123.973 10.8374 120.445 10.8374C116.917 10.8374 116.917 12.5 113.39 12.5C109.862 12.5 109.862 0.5 106.334 0.5C102.806 0.5 102.806 12.5 99.2782 12.5C95.7501 12.5 95.7507 5.7092 92.2227 5.7092C88.6947 5.7092 88.6953 12.5 85.1673 12.5C81.6392 12.5 81.6398 0.5 78.1118 0.5C74.5838 0.5 74.5844 12.5 71.0563 12.5C67.5283 12.5 67.5283 8.20646 64.0009 8.20646C60.4734 8.20646 60.4729 12.5 56.9454 12.5C53.418 12.5 53.4174 10.5285 49.89 10.5285C46.3625 10.5285 46.3619 12.5 42.8345 12.5C39.3071 12.5 39.3065 3.91292 35.7791 3.91292C32.2516 3.91292 32.251 12.5 28.723 12.5C25.195 12.5 25.1956 0.5 21.6675 0.5C18.1395 0.5 18.1395 12.5 14.6121 12.5C11.0847 12.5 11.0841 2.11664 7.55605 2.11664C4.02802 2.11664 4.02802 12.5 0.5 12.5" fill="white"/>
</svg>
