<svg width="314" height="22" viewBox="0 0 314 22" fill="none" xmlns="http://www.w3.org/2000/svg">
<path d="M309.482 3.58501C309.666 3.73686 309.845 3.89538 310.017 4.06018L310.009 4.0528C309.839 3.89065 309.664 3.7346 309.482 3.58501ZM297.156 18.5389C296.986 18.3994 296.822 18.2542 296.663 18.1036L296.671 18.1117C296.828 18.2594 296.989 18.4019 297.156 18.5389ZM296.31 17.7523L296.322 17.7645C296.318 17.7604 296.314 17.7564 296.31 17.7523ZM17.4442 3.2446C19.1032 4.98061 20.1234 7.33222 20.1276 9.9221C20.1234 7.33391 19.1042 4.98325 17.4472 3.24777L17.4442 3.2446ZM284.145 10.4416L273.511 10.4416V9.45972L284.145 9.45973V10.4416ZM238.749 10.4599C238.749 8.1118 240.652 6.20832 243 6.20832C245.348 6.20832 247.252 8.1118 247.252 10.4599C247.252 12.8079 245.348 14.7114 243 14.7114C240.652 14.7114 238.749 12.8079 238.749 10.4599ZM254.749 10.4599C254.749 8.1118 256.652 6.20832 259 6.20832C261.348 6.20832 263.252 8.1118 263.252 10.4599C263.252 12.8079 261.348 14.7114 259 14.7114C256.652 14.7114 254.749 12.8079 254.749 10.4599ZM30.6118 10.5584L41.2455 10.5584V11.5403L30.6118 11.5403V10.5584ZM75.0085 10.5402C75.0085 12.8882 73.105 14.7917 70.7569 14.7917C68.4089 14.7917 66.5054 12.8882 66.5054 10.5402C66.5054 8.1921 68.4089 6.28861 70.7569 6.28861C73.105 6.28861 75.0085 8.1921 75.0085 10.5402ZM59.0085 10.5402C59.0085 12.8882 57.105 14.7917 54.7569 14.7917C52.4089 14.7917 50.5054 12.8882 50.5054 10.5402C50.5054 8.1921 52.4089 6.28861 54.7569 6.28861C57.105 6.28861 59.0085 8.1921 59.0085 10.5402ZM167.252 11C167.252 16.9379 162.438 21.7515 156.5 21.7515C150.562 21.7515 145.748 16.9379 145.748 11C145.748 5.06208 150.562 0.248451 156.5 0.248451C162.438 0.248451 167.252 5.06208 167.252 11ZM163.252 11C163.252 14.7288 160.229 17.7515 156.5 17.7515C152.771 17.7515 149.748 14.7288 149.748 11C149.748 7.27122 152.771 4.24845 156.5 4.24845C160.229 4.24845 163.252 7.27122 163.252 11ZM156.5 18.2485C160.503 18.2485 163.748 15.0032 163.748 11C163.748 6.99679 160.503 3.75155 156.5 3.75155C152.497 3.75155 149.252 6.99679 149.252 11C149.252 15.0032 152.497 18.2485 156.5 18.2485Z" stroke="white" stroke-width="0.496902"/>
</svg>
