<svg width="28" height="22" viewBox="0 0 28 22" fill="none" xmlns="http://www.w3.org/2000/svg">
<path d="M23.3566 2.24079C21.6358 1.43505 19.7904 0.841422 17.8609 0.501426C17.8257 0.494864 17.7906 0.511263 17.7725 0.54406C17.5352 0.974793 17.2723 1.53672 17.0882 1.97839C15.013 1.66136 12.9483 1.66136 10.9156 1.97839C10.7315 1.5269 10.459 0.974793 10.2206 0.54406C10.2025 0.512357 10.1674 0.495959 10.1323 0.501426C8.2039 0.840336 6.35851 1.43396 4.63655 2.24079C4.62164 2.24734 4.60887 2.25829 4.60039 2.27249C1.10007 7.60863 0.141181 12.8136 0.611578 17.9541C0.613706 17.9792 0.627541 18.0033 0.646698 18.0186C2.95611 19.7492 5.19317 20.7998 7.38869 21.4962C7.42383 21.5071 7.46106 21.494 7.48342 21.4645C8.00277 20.7408 8.46572 19.9777 8.86266 19.1752C8.88609 19.1282 8.86372 19.0725 8.81585 19.0539C8.08152 18.7696 7.3823 18.4231 6.7097 18.0295C6.65649 17.9978 6.65224 17.9202 6.70118 17.883C6.84272 17.7748 6.9843 17.6621 7.11945 17.5484C7.1439 17.5277 7.17797 17.5233 7.20672 17.5364C11.6254 19.595 16.4092 19.595 20.7758 17.5364C20.8046 17.5222 20.8386 17.5266 20.8642 17.5474C20.9994 17.6611 21.1409 17.7748 21.2835 17.883C21.3324 17.9202 21.3292 17.9978 21.276 18.0295C20.6034 18.4307 19.9042 18.7696 19.1688 19.0528C19.1209 19.0714 19.0997 19.1282 19.1231 19.1752C19.5285 19.9766 19.9915 20.7396 20.5013 21.4634C20.5226 21.494 20.5608 21.5071 20.596 21.4962C22.8022 20.7998 25.0392 19.7492 27.3486 18.0186C27.3688 18.0033 27.3816 17.9803 27.3837 17.9552C27.9467 12.0122 26.4408 6.84993 23.3917 2.27357C23.3843 2.25829 23.3715 2.24734 23.3566 2.24079ZM9.52253 14.8241C8.19219 14.8241 7.09602 13.5778 7.09602 12.0472C7.09602 10.5167 8.17093 9.27039 9.52253 9.27039C10.8847 9.27039 11.9703 10.5276 11.949 12.0472C11.949 13.5778 10.8741 14.8241 9.52253 14.8241ZM18.4941 14.8241C17.1638 14.8241 16.0676 13.5778 16.0676 12.0472C16.0676 10.5167 17.1425 9.27039 18.4941 9.27039C19.8563 9.27039 20.9419 10.5276 20.9206 12.0472C20.9206 13.5778 19.8563 14.8241 18.4941 14.8241Z" fill="white"/>
</svg>
