<svg width="81" height="80" viewBox="0 0 81 80" fill="none" xmlns="http://www.w3.org/2000/svg">
<circle cx="40.5599" cy="39.9398" r="39.6898" stroke="white" stroke-width="0.5"/>
<path d="M55.3365 17.5872C53.6868 17.9389 52.5479 18.5586 51.3588 19.756C50.6387 20.4762 50.4544 20.7191 50.1195 21.3973C49.6338 22.3855 49.5166 22.846 49.3491 24.5376C49.0058 27.9709 48.4028 30.6757 47.6408 32.1914C47.3393 32.7776 47.3142 33.1376 47.5487 33.3721C47.7832 33.6066 48.1432 33.5815 48.7043 33.2967C50.2284 32.5347 53.0085 31.915 56.467 31.5717C57.2039 31.4963 58.0664 31.3624 58.393 31.2702C60.8549 30.5417 62.7809 28.331 63.3336 25.5927C63.5262 24.6632 63.4676 23.1308 63.208 22.2347C62.8647 21.0289 62.044 19.7644 61.1145 18.994C60.4781 18.4665 59.2722 17.8552 58.5186 17.6709C57.7482 17.4783 56.0231 17.4365 55.3365 17.5872Z" fill="white"/>
<path d="M23.6826 19.2789C23.0378 19.3291 22.4349 19.505 21.7315 19.865C21.1704 20.1581 20.8857 20.3675 20.5005 20.7946C19.0769 22.3437 18.7755 24.5126 19.7217 26.4219C20.0567 27.1169 19.6129 26.6312 26.2367 33.4141C33.2122 40.5487 32.6679 39.9626 33.0531 40.7497C34.4599 43.6304 33.1033 47.5326 30.1557 49.0567C28.774 49.7685 28.506 49.8187 25.818 49.8271C23.1634 49.8271 23.0211 49.8522 21.7566 50.5054C20.1739 51.3176 18.9932 52.8333 18.5745 54.5751C18.2647 55.8815 18.407 57.4725 18.943 58.6867C19.6631 60.328 21.2542 61.6762 23.0629 62.1954C23.9087 62.4383 25.4412 62.4466 26.2785 62.2205C28.3553 61.6595 30.0301 60.1187 30.6665 58.1676C31.0266 57.0957 31.0852 56.4341 30.968 55.0943C30.8005 53.2855 30.9931 52.1383 31.6798 50.7398C33.2624 47.5242 37.7844 46.1509 40.5896 48.0434C40.8157 48.1942 43.2023 50.4719 45.8904 53.0929C53.8707 60.8975 53.6279 60.6797 54.2978 61.0231C56.2322 62.0363 58.5685 61.7097 60.0759 60.2108C61.692 58.603 61.9851 56.208 60.8044 54.3072C60.6285 54.0308 59.6823 53.0176 58.3927 51.7531C50.7724 44.25 49.0641 42.5836 48.972 42.5836C48.7459 42.5836 48.5533 42.7678 48.5533 42.9939C48.5533 43.1195 48.9887 44.451 49.5247 45.9416C50.3621 48.2695 50.5044 48.7468 50.5379 49.3079C50.5798 49.9025 50.5714 49.9778 50.3621 50.2877C49.4577 51.6526 47.3977 50.899 44.8101 48.2695C43.3447 46.7706 42.6999 45.9164 41.3935 43.7225C39.8862 41.1852 39.6015 40.9004 36.9805 39.3345C35.0461 38.1789 33.5806 37.0819 32.4418 35.9263C30.4739 33.9249 29.5611 32.292 29.8626 31.2871C30.0887 30.5335 30.8089 30.1148 31.6714 30.232C31.9059 30.2655 32.894 30.5753 33.857 30.9187C37.8011 32.3255 37.9184 32.359 38.1026 32.0827C38.3036 31.7896 38.4459 31.9487 28.9582 22.3186C27.2248 20.5601 26.7224 20.0995 26.2786 19.865C25.4495 19.4128 24.5703 19.2202 23.6826 19.2789Z" fill="white"/>
<path d="M42.6331 34.5784C41.7706 34.8547 41.1342 35.4325 40.749 36.2699C40.5983 36.5965 40.5564 36.831 40.5564 37.392C40.5564 38.0284 40.5815 38.1708 40.8327 38.6649C41.1509 39.3097 41.6031 39.7535 42.2647 40.0633C42.675 40.2559 42.8425 40.281 43.571 40.281C44.3665 40.281 44.4335 40.2643 44.936 39.9963C45.564 39.653 45.9827 39.2092 46.2842 38.5727C46.4684 38.1792 46.5019 37.9866 46.5019 37.392C46.5019 36.7975 46.4684 36.6049 46.2842 36.2113C45.9744 35.5497 45.5305 35.0976 44.8941 34.7793C44.4419 34.5616 44.2326 34.5114 43.6715 34.4863C43.2444 34.4695 42.8509 34.503 42.6331 34.5784Z" fill="white"/>
</svg>
